:SAMPLES-PER-SECOND 30
:FULLY-SPECIFIED
:DEGREES
795
root  80.4508 38.6136 -2.5275 -178.776 -72.8314 -178.862
RightUpLeg  -27.456 0.876577 -3.69027
RightLeg  21.5322 3.35798 1.271
RightFoot  -1.39528 -0.708188 8.00857
RightToes  -2.9104e-010 0 -3.6325e-017
Spine  7.46534 0.306159 -3.51568
Spine1  6.44819 1.0466 -3.25418
HEad  -5.20967 -27.0528 2.27771
LeftShoulder1  -0.798602 5.55863 -32.7003
LeftArm  -14.2088 18.0217 -42.2359
LeftForeArm  14.9509 -8.17253 -3.33177
LeftHand  0.00937362 11.1133 1.41857
RightShoulder  -0.958683 -6.14268 29.7637
RightArm  16.4042 -6.21071 47.7486
RightForeArm  11.4303 25.3147 4.81818
RightHand  -0.249291 3.74826 -3.41003
LeftUpLeg  -2.13032 7.40614 -1.61786
LeftLeg  14.0607 15.4229 2.08874
LeftFoot  -17.0563 0.165591 1.26692
LeftToes  -3.37426e-010 -1.91496e-010 5.23909e-011
796
root  80.2414 38.6297 -2.53141 -179.215 -73.7807 -177.679
RightUpLeg  -27.4833 0.745611 -2.97697
RightLeg  16.599 2.25911 0.513749
RightFoot  -2.42227 -0.600792 7.48582
RightToes  -2.9104e-010 0 -3.6325e-017
Spine  7.77942 0.0518711 -2.7699
Spine1  5.41729 0.814272 -3.19447
HEad  -5.68127 -27.7357 2.57616
LeftShoulder1  -0.801616 5.56569 -32.7129
LeftArm  -13.4868 17.6512 -42.8626
LeftForeArm  16.1576 -8.0011 -3.77181
LeftHand  0.0326262 9.90222 2.24259
RightShoulder  -0.965482 -6.15178 29.8902
RightArm  18.229 -7.1602 47.2237
RightForeArm  10.8885 24.0027 4.58633
RightHand  -0.214335 3.45751 -3.18606
LeftUpLeg  -2.54395 7.38112 -1.37274
LeftLeg  13.8704 14.4334 1.92861
LeftFoot  -17.224 0.165587 1.21125
LeftToes  -3.37426e-010 -1.91496e-010 5.23909e-011
797
root  79.8537 38.6357 -2.52956 -178.76 -74.2251 -178.327
RightUpLeg  -26.6744 -0.0494703 -2.46522
RightLeg  12.7153 3.13692 0.418728
RightFoot  -3.18178 -0.553363 7.44145
RightToes  -2.9104e-010 0 -3.6325e-017
Spine  8.48284 -0.121601 -2.03198
Spine1  4.51239 0.734278 -3.68696
HEad  -5.43638 -28.0335 2.19986
LeftShoulder1  -0.776483 5.49813 -32.7578
LeftArm  -12.7347 17.019 -43.1315
LeftForeArm  18.6963 -7.99289 -4.26156
LeftHand  0.0074224 13.2399 0.952798
RightShoulder  -1.0071 -6.22604 30.4372
RightArm  20.0348 -7.99687 46.4716
RightForeArm  10.362 21.6763 4.36788
RightHand  -0.0973864 5.7318 -1.30714
LeftUpLeg  -1.38286 7.20574 -1.62139
LeftLeg  13.1062 14.1377 1.63175
LeftFoot  -17.2803 0.173479 1.34465
LeftToes  -3.37426e-010 -1.91496e-010 5.23909e-011
798
root  79.4183 38.5659 -2.5842 -177.497 -75.1444 -179.054
RightUpLeg  -26.8527 -1.08929 -1.85353
RightLeg  10.2589 4.35032 0.386168
RightFoot  -3.65435 -0.531295 7.53412
RightToes  -2.9104e-010 0 -3.6325e-017
Spine  8.04577 -0.415889 -1.96777
Spine1  4.06404 0.339799 -3.24383
HEad  -5.23827 -28.1493 1.61352
LeftShoulder1  -0.845505 5.63831 -33.4409
LeftArm  -11.2356 15.3384 -43.0185
LeftForeArm  22.0739 -7.9896 -5.16937
LeftHand  0.0757384 15.4392 1.55866
RightShoulder  -1.01151 -6.23143 30.5204
RightArm  20.8633 -8.94273 46.0545
RightForeArm  10.7886 19.7874 4.61908
RightHand  -0.179873 5.22069 -2.27818
LeftUpLeg  -1.31615 7.14455 -1.81272
LeftLeg  13.0577 13.247 1.3769
LeftFoot  -17.7252 0.190851 1.5132
LeftToes  -3.37426e-010 -1.91496e-010 5.23909e-011
799
root  78.9222 38.4519 -2.69165 -175.416 -76.1076 178.795
RightUpLeg  -26.8214 -0.782376 -2.03424
RightLeg  9.77321 4.42047 0.231595
RightFoot  -4.303 -0.532716 8.16768
RightToes  -2.9104e-010 0 -3.6325e-017
Spine  8.9107 -0.595144 -2.24317
Spine1  2.66068 0.0350098 -2.91596
HEad  -4.94019 -28.7708 1.01588
LeftShoulder1  -0.799579 5.52929 -33.3083
LeftArm  -10.3593 14.16 -43.2029
LeftForeArm  25.7229 -8.69174 -5.57851
LeftHand  -0.0391866 9.17901 0.724378
RightShoulder  -1.07248 -6.34151 31.24
RightArm  20.6282 -10.124 44.9427
RightForeArm  12.0824 18.182 4.9716
RightHand  -0.138098 5.37477 -1.79668
LeftUpLeg  -0.464608 7.15171 -2.15544
LeftLeg  12.9396 12.437 1.0728
LeftFoot  -18.2133 0.21571 1.77365
LeftToes  -3.37426e-010 -1.91496e-010 5.23909e-011
800
root  78.3121 38.302 -2.80064 -173.052 -76.8691 176.332
RightUpLeg  -26.5668 -1.0065 -2.1608
RightLeg  10.1096 4.42462 0.340351
RightFoot  -4.55112 -0.526764 8.33408
RightToes  -2.9104e-010 0 -3.6325e-017
Spine  8.78481 -0.767774 -2.66163
Spine1  2.53152 -0.34509 -2.1419
HEad  -4.926 -28.9038 0.298156
LeftShoulder1  -0.823018 5.56608 -33.7387
LeftArm  -9.22563 12.9046 -43.3336
LeftForeArm  26.5421 -10.1439 -5.97592
LeftHand  -0.0848906 11.7621 -0.431057
RightShoulder  -1.09441 -6.38599 31.4162
RightArm  19.4909 -11.1769 44.219
RightForeArm  13.2966 16.821 5.26384
RightHand  -0.0914687 4.47537 -1.36893
LeftUpLeg  0.583962 7.0024 -2.61253
LeftLeg  12.8651 11.7801 0.95927
LeftFoot  -18.9349 0.240536 1.9072
LeftToes  -3.37426e-010 -1.91496e-010 5.23909e-011
801
root  77.5783 38.1426 -2.94761 -171.215 -77.2973 174.136
RightUpLeg  -26.0381 -0.362873 -2.30194
RightLeg  11.7289 3.36657 0.283578
RightFoot  -4.83355 -0.487539 7.91201
RightToes  -2.9104e-010 0 -3.6325e-017
Spine  7.26397 -0.858071 -2.65989
Spine1  4.70798 -0.533013 -1.75043
HEad  -5.39532 -29.2359 -0.0654229
LeftShoulder1  -0.854939 5.66731 -33.3432
LeftArm  -8.65017 10.9005 -44.5576
LeftForeArm  26.3077 -11.3051 -5.89837
LeftHand  -0.0523392 7.73581 -0.532885
RightShoulder  -1.0129 -6.20541 30.9302
RightArm  16.3891 -11.525 44.7876
RightForeArm  15.8106 14.4658 5.63157
RightHand  -0.0784075 5.02458 -1.17619
LeftUpLeg  2.22842 7.05585 -2.8816
LeftLeg  12.7118 11.4047 0.903617
LeftFoot  -19.6871 0.2725 2.1206
LeftToes  -3.37426e-010 -1.91496e-010 5.23909e-011
802
root  76.7987 38.0352 -3.10112 -169.658 -78.6036 173.025
RightUpLeg  -26.2936 -0.380938 -2.15199
RightLeg  13.9366 2.90007 0.517288
RightFoot  -3.66516 -0.417307 6.16858
RightToes  -2.9104e-010 0 -3.6325e-017
Spine  6.69642 -1.11427 -2.34333
Spine1  4.29371 -1.05984 -0.723478
HEad  -5.01652 -29.6827 -0.755701
LeftShoulder1  -0.855999 5.66034 -33.5174
LeftArm  -7.50266 10.1159 -44.8291
LeftForeArm  24.6709 -13.0681 -5.68836
LeftHand  -0.030063 5.08664 -0.571294
RightShoulder  -1.03083 -6.24257 31.0604
RightArm  15.4318 -12.8949 43.7248
RightForeArm  16.893 13.6438 5.65919
RightHand  -0.0599731 4.28426 -0.997553
LeftUpLeg  3.12536 6.97214 -2.78864
LeftLeg  12.454 10.2662 0.866166
LeftFoot  -20.247 0.258831 1.75542
LeftToes  -3.37426e-010 -1.91496e-010 5.23909e-011
803
root  75.8658 38.011 -3.28977 -173.44 -78.5764 176.269
RightUpLeg  -25.7292 1.34064 -1.29105
RightLeg  16.3158 2.90165 0.682936
RightFoot  -0.648262 -0.0984045 0.885688
RightToes  -2.9104e-010 0 -3.6325e-017
Spine  7.77442 -0.790974 -0.53006
Spine1  2.79146 -0.82141 -0.43581
HEad  -3.44556 -30.5031 -2.3164
LeftShoulder1  -0.921737 5.80974 -33.7926
LeftArm  -5.04378 10.2533 -44.4309
LeftForeArm  21.6661 -15.6933 -5.37265
LeftHand  -0.0305454 3.66552 0.758243
RightShoulder  -1.13538 -6.4436 32.0733
RightArm  15.3693 -14.1214 41.5383
RightForeArm  17.0848 12.8548 5.78612
RightHand  -0.0438372 3.95018 -0.812153
LeftUpLeg  6.15885 7.19908 -1.8812
LeftLeg  10.8502 10.1289 0.76095
LeftFoot  -20.3041 0.214619 1.19353
LeftToes  -3.37426e-010 -1.91496e-010 5.23909e-011
804
root  74.946 37.8546 -3.50432 -178.238 -80.1125 -178.56
RightUpLeg  -26.0334 1.839 -0.552986
RightLeg  19.1178 1.3914 0.337954
RightFoot  0.424301 -0.0214478 0.189353
RightToes  -2.9104e-010 0 -3.6325e-017
Spine  7.24104 -1.26146 1.21938
Spine1  2.47147 -1.39609 0.364212
HEad  -2.85664 -30.9853 -3.36311
LeftShoulder1  -0.95598 5.89562 -33.7817
LeftArm  -3.32354 9.55248 -44.9153
LeftForeArm  19.4363 -17.7886 -4.92325
LeftHand  -0.047638 3.33902 1.81278
RightShoulder  -1.15376 -6.49881 31.9769
RightArm  13.9197 -14.5228 40.9294
RightForeArm  18.0477 11.6962 5.74136
RightHand  -0.0582521 3.94336 -0.990456
LeftUpLeg  6.63558 7.42311 -0.573843
LeftLeg  12.3149 8.34122 1.61038
LeftFoot  -21.6267 0.16438 0.382548
LeftToes  -3.37426e-010 -1.91496e-010 5.23909e-011
805
root  73.9762 37.6661 -3.71777 173.856 -79.9886 -171.309
RightUpLeg  -25.5632 2.40553 0.893973
RightLeg  22.9871 1.1059 0.300868
RightFoot  -1.57735 0.103337 -1.29961
RightToes  -2.9104e-010 0 -3.6325e-017
Spine  7.23142 -1.17186 3.49423
Spine1  3.20728 -1.29629 0.821325
HEad  -2.91167 -31.5168 -4.10627
LeftShoulder1  -0.852458 5.65469 -33.4883
LeftArm  -2.00431 8.95906 -45.7107
LeftForeArm  18.2753 -20.1218 -4.34413
LeftHand  -0.0422454 4.30928 2.17965
RightShoulder  -1.13755 -6.49525 31.482
RightArm  12.5532 -14.2621 40.8906
RightForeArm  18.2638 10.9411 5.55103
RightHand  -0.0573521 4.16923 -0.981018
LeftUpLeg  8.02943 7.17019 0.776806
LeftLeg  14.6359 8.32358 2.66732
LeftFoot  -22.7216 0.0470992 -0.880561
LeftToes  -3.37426e-010 -1.91496e-010 5.23909e-011
806
root  73.0416 37.5366 -3.93082 167.063 -80.867 -165.047
RightUpLeg  -24.4907 1.93264 1.90482
RightLeg  25.5433 0.508897 0.0340679
RightFoot  -3.84785 0.0663036 -1.44876
RightToes  -2.9104e-010 0 -3.6325e-017
Spine  7.4936 -1.51852 5.25488
Spine1  3.32608 -1.73176 1.75273
HEad  -2.2907 -32.1833 -4.99824
LeftShoulder1  -0.959855 5.9692 -32.7507
LeftArm  0.1954 8.19724 -46.3611
LeftForeArm  17.292 -22.1695 -4.11902
LeftHand  -0.0266033 5.3947 2.08223
RightShoulder  -1.10237 -6.42038 31.2472
RightArm  11.6236 -14.1454 40.538
RightForeArm  17.4009 10.8318 5.30449
RightHand  -0.0687205 5.21712 -1.07648
LeftUpLeg  7.61019 5.86461 2.048
LeftLeg  19.8534 7.59554 3.36563
LeftFoot  -22.8854 -0.28304 -4.14711
LeftToes  -3.37426e-010 -1.91496e-010 5.23909e-011
807
root  72.1467 37.4007 -4.20588 162.516 -81.5185 -161.012
RightUpLeg  -23.5206 2.13292 2.60278
RightLeg  28.0917 -0.613864 -0.586818
RightFoot  -6.36317 0.0573125 -2.278
RightToes  -2.9104e-010 0 -3.6325e-017
Spine  8.16558 -1.73765 6.39061
Spine1  2.84883 -1.8883 2.65744
HEad  -1.45664 -32.7596 -5.39091
LeftShoulder1  -0.915847 5.85032 -32.8594
LeftArm  0.45906 7.69422 -45.8663
LeftForeArm  19.0361 -24.1406 -4.14027
LeftHand  -0.020117 5.83363 2.54976
RightShoulder  -1.14705 -6.50124 31.723
RightArm  11.8824 -13.3698 39.9272
RightForeArm  16.2655 11.1203 5.32896
RightHand  -0.118636 3.53471 -1.78748
LeftUpLeg  5.45515 5.22351 3.33642
LeftLeg  28.0858 5.51715 3.51121
LeftFoot  -21.3053 -0.62886 -8.92415
LeftToes  -3.37426e-010 -1.91496e-010 5.23909e-011
